<?xml version="1.0" encoding="utf-8"?>
<svg id="Group_13580" data-name="Group 13580" xmlns="http://www.w3.org/2000/svg" xmlns:xlink="http://www.w3.org/1999/xlink" width="175" height="45" viewBox="0 0 175 45">
  <defs>
    <clipPath id="clip-path">
      <rect id="Rectangle_6126" data-name="Rectangle 6126" width="175" height="45" fill="none"/>
    </clipPath>
  </defs>
  <g id="Group_13579" data-name="Group 13579" clip-path="url(#clip-path)">
    <path id="Path_17724" data-name="Path 17724" d="M205.809,47.171a7.129,7.129,0,0,1,1.883,5.374v9.183a.215.215,0,0,1-.216.215h-3.426a.215.215,0,0,1-.216-.215V53.037a4.591,4.591,0,0,0-1.019-3.24,3.777,3.777,0,0,0-2.9-1.09,4.466,4.466,0,0,0-3.364,1.274,5.066,5.066,0,0,0-1.234,3.67v8.077a.215.215,0,0,1-.216.215h-3.426a.215.215,0,0,1-.216-.215V45.758a.215.215,0,0,1,.216-.215h3.241a.216.216,0,0,1,.216.215v1.355a.215.215,0,0,0,.37.149,6.109,6.109,0,0,1,2.037-1.319,8.708,8.708,0,0,1,3.271-.584,6.908,6.908,0,0,1,5,1.812" transform="translate(-133.671 -31.736)" fill="#040505" fill-rule="evenodd"/>
    <path id="Path_17725" data-name="Path 17725" d="M257.785,49.521a4.514,4.514,0,0,0-1.514,2.649.215.215,0,0,0,.213.253h8.839a.215.215,0,0,0,.214-.25,4.471,4.471,0,0,0-1.472-2.637,4.614,4.614,0,0,0-3.148-1.106,4.666,4.666,0,0,0-3.132,1.09m11.2,5.451H256.523a.216.216,0,0,0-.209.269,4.419,4.419,0,0,0,1.717,2.6A5.837,5.837,0,0,0,261.6,58.9a6.041,6.041,0,0,0,4.312-1.622.216.216,0,0,1,.312.012l1.794,2.053a.214.214,0,0,1,0,.283,6.986,6.986,0,0,1-2.686,1.854,11.18,11.18,0,0,1-8.611-.4,7.759,7.759,0,0,1-3.194-2.994,8.421,8.421,0,0,1-1.126-4.346,8.545,8.545,0,0,1,1.1-4.315,7.755,7.755,0,0,1,3.04-2.994,8.9,8.9,0,0,1,4.382-1.075,8.681,8.681,0,0,1,4.306,1.06,7.524,7.524,0,0,1,2.963,2.979,9,9,0,0,1,1.065,4.438q0,.344-.046.938a.215.215,0,0,1-.215.2" transform="translate(-176.219 -31.736)" fill="#040505" fill-rule="evenodd"/>
    <path id="Path_17726" data-name="Path 17726" d="M334.612,46.262l-5.921,15.97a.215.215,0,0,1-.2.141h-3.4a.216.216,0,0,1-.2-.139L320.878,51.6a.216.216,0,0,0-.4,0l-4.065,10.632a.216.216,0,0,1-.2.138h-3.4a.215.215,0,0,1-.2-.141l-5.891-15.97a.215.215,0,0,1,.2-.289h3.181a.216.216,0,0,1,.2.142l4.1,11.4a.216.216,0,0,0,.405,0l4.278-11.41a.216.216,0,0,1,.2-.14h2.94a.216.216,0,0,1,.2.141l4.191,11.467a.216.216,0,0,0,.405,0l4.22-11.468a.216.216,0,0,1,.2-.141h2.965a.215.215,0,0,1,.2.289" transform="translate(-214.128 -32.165)" fill="#040505" fill-rule="evenodd"/>
    <path id="Path_17727" data-name="Path 17727" d="M409.7,56.646a4.422,4.422,0,0,0,1.4-3.394,4.339,4.339,0,0,0-1.4-3.347,5.7,5.7,0,0,0-7.222,0,4.336,4.336,0,0,0-1.4,3.347,4.42,4.42,0,0,0,1.4,3.394,5.649,5.649,0,0,0,7.222,0m4.984-11.1a.215.215,0,0,1,.216.215v13.7q0,8.66-8.888,8.66a16.571,16.571,0,0,1-4.506-.6,9.743,9.743,0,0,1-3.371-1.618.214.214,0,0,1-.051-.279l1.506-2.515a.216.216,0,0,1,.318-.058,8.5,8.5,0,0,0,2.54,1.276,10.757,10.757,0,0,0,3.348.537,5.547,5.547,0,0,0,3.981-1.228,5.008,5.008,0,0,0,1.266-3.747v-.341a.215.215,0,0,0-.362-.155,6.414,6.414,0,0,1-2.045,1.264,8.525,8.525,0,0,1-3.117.553,8.971,8.971,0,0,1-4.243-1,7.517,7.517,0,0,1-2.994-2.81,7.851,7.851,0,0,1-1.1-4.146,7.773,7.773,0,0,1,1.1-4.131,7.447,7.447,0,0,1,2.994-2.779,9.088,9.088,0,0,1,4.243-.983,8.733,8.733,0,0,1,3.256.584,6.02,6.02,0,0,1,2.083,1.37.215.215,0,0,0,.371-.147V45.759a.215.215,0,0,1,.216-.215Z" transform="translate(-277.307 -31.736)" fill="#040505" fill-rule="evenodd"/>
    <path id="Path_17728" data-name="Path 17728" d="M468.423,49.521a4.519,4.519,0,0,0-1.514,2.649.215.215,0,0,0,.213.253h8.839a.215.215,0,0,0,.214-.25,4.471,4.471,0,0,0-1.472-2.637,4.613,4.613,0,0,0-3.148-1.106,4.668,4.668,0,0,0-3.132,1.09m11.2,5.451H467.161a.217.217,0,0,0-.209.269,4.421,4.421,0,0,0,1.717,2.6,5.835,5.835,0,0,0,3.564,1.059,6.041,6.041,0,0,0,4.313-1.622.216.216,0,0,1,.312.012l1.795,2.053a.214.214,0,0,1,0,.283,6.989,6.989,0,0,1-2.686,1.854,11.18,11.18,0,0,1-8.61-.4,7.764,7.764,0,0,1-3.194-2.994,8.424,8.424,0,0,1-1.126-4.346,8.548,8.548,0,0,1,1.1-4.315,7.756,7.756,0,0,1,3.04-2.994,8.9,8.9,0,0,1,4.382-1.075,8.68,8.68,0,0,1,4.305,1.06,7.521,7.521,0,0,1,2.963,2.979,9,9,0,0,1,1.065,4.438q0,.344-.046.938a.215.215,0,0,1-.215.2" transform="translate(-323.282 -31.736)" fill="#040505" fill-rule="evenodd"/>
    <path id="Path_17729" data-name="Path 17729" d="M540.375,47.171a7.127,7.127,0,0,1,1.883,5.374v9.183a.215.215,0,0,1-.216.215h-3.426a.215.215,0,0,1-.216-.215V53.037a4.592,4.592,0,0,0-1.018-3.24,3.779,3.779,0,0,0-2.9-1.09,4.466,4.466,0,0,0-3.364,1.274,5.065,5.065,0,0,0-1.235,3.67v8.077a.215.215,0,0,1-.216.215H526.24a.215.215,0,0,1-.216-.215V45.758a.215.215,0,0,1,.216-.215h3.241a.215.215,0,0,1,.216.215v1.355a.216.216,0,0,0,.37.149,6.107,6.107,0,0,1,2.037-1.319,8.706,8.706,0,0,1,3.271-.584,6.908,6.908,0,0,1,5,1.812" transform="translate(-367.258 -31.736)" fill="#040505" fill-rule="evenodd"/>
    <path id="Path_17730" data-name="Path 17730" d="M71,60.036a1.112,1.112,0,0,1-.558.8,1.126,1.126,0,0,1-1.525-.434A1.12,1.12,0,1,1,71,60.036M94.811,41.445c-.475-1.248-2.815-1.409-6.329-.675,1.141-.165,2.965.442,3.255,1.206.99,2.6-7.39,9.467-18.709,15.321-.481.25-.964.49-1.446.732a2.495,2.495,0,1,0-.47,4.007,2.481,2.481,0,0,0,1.23-2.654c.425-.211.848-.42,1.277-.642A108.436,108.436,0,0,0,85.281,51.8q.038.612.039,1.234a20.129,20.129,0,0,1-20.179,20.08c-.082,0-.162,0-.242,0,.693.066,1.4.1,2.109.1A21.672,21.672,0,0,0,88.7,49.294c4.3-3.382,6.7-6.3,6.112-7.848" transform="translate(-45.311 -28.218)" fill="#f57417" fill-rule="evenodd"/>
    <path id="Path_17731" data-name="Path 17731" d="M18.983,36.979a1.11,1.11,0,0,1-.539.742,1.125,1.125,0,0,1-1.529-.419,1.12,1.12,0,0,1,1.95-1.1,1.1,1.1,0,0,1,.118.78M60.436,8.851c-.6-1.516-3.933-1.4-8.795.014,3.17-.7,5.286-.577,5.725.545.569,1.454-3.5,5.155-9.144,9.214-.192.135-.38.268-.576.4a.013.013,0,0,1,0,0,156.648,156.648,0,0,1-14.164,8.894c-4.347,2.406-9.127,4.94-13.777,7.118a2.5,2.5,0,1,0-.581,3.872,2.484,2.484,0,0,0,1.233-2.541c4.251-1.907,8.857-4.309,13.731-7.012,4.726-2.621,9.765-5.749,14.164-8.789a19.859,19.859,0,0,1,1.9,4.822s0,.005,0,.009a29.61,29.61,0,0,0,3.226-2.729,21.478,21.478,0,0,0-1.853-4.438c5.638-4.164,9.5-7.849,8.9-9.387" transform="translate(-10.741 -5.429)" fill="#f57417" fill-rule="evenodd"/>
    <path id="Path_17732" data-name="Path 17732" d="M34.651,20.3a1.114,1.114,0,0,1-.554.779,1.125,1.125,0,0,1-1.526-.434,1.121,1.121,0,0,1,1.962-1.084,1.1,1.1,0,0,1,.119.739M60.627,10.023A21.892,21.892,0,0,0,56.818,6.21c2.237-2.176,3.349-3.983,2.927-5.094C59.457.359,58.483,0,56.976,0a18.536,18.536,0,0,0-3.793.488c1.927.03,3.174.332,3.488,1.158.99,2.6-7.39,9.467-18.709,15.321-.892.461-1.788.907-2.684,1.346a2.483,2.483,0,1,0,.733,1.363q1.258-.6,2.543-1.265a97.447,97.447,0,0,0,15.2-9.546,20.249,20.249,0,0,1,3.617,3.548l.014.017c1.4-.972,2.086-1.489,3.246-2.4l-.008-.011" transform="translate(-21.677 -0.001)" fill="#040505" fill-rule="evenodd"/>
    <path id="Path_17733" data-name="Path 17733" d="M32.111,7.945A21.843,21.843,0,0,0,0,24.8,20.221,20.221,0,0,1,29.061,10.677a21.613,21.613,0,0,0,3.05-2.732" transform="translate(0 -3.717)" fill="#040505" fill-rule="evenodd"/>
  </g>
</svg>
