<svg width="90" height="60" viewBox="0 0 90 60" fill="none" xmlns="http://www.w3.org/2000/svg">
<path opacity="0.1" d="M30.1094 27.4953C28.7662 25.1156 28 22.3692 28 19.4444C28 10.3624 35.3873 3 44.5 3C53.6127 3 61 10.3624 61 19.4444C61 22.5783 60.1204 25.5075 58.5938 28" stroke="white" stroke-width="6" stroke-linecap="round" stroke-linejoin="round"/>
<path opacity="0.6" d="M32.7258 25.5962C31.6269 23.6925 31 21.4953 31 19.1555C31 11.8899 37.0442 6 44.5 6C51.9558 6 58 11.8899 58 19.1555C58 21.6626 57.2803 24.006 56.0312 26" stroke="white" stroke-width="4" stroke-linecap="round" stroke-linejoin="round"/>
<path d="M34.4702 25.6568C33.534 24.0386 33 22.171 33 20.1822C33 14.0064 38.1487 9 44.5 9C50.8513 9 56 14.0064 56 20.1822C56 22.3132 55.3869 24.3051 54.3229 26" stroke="white" stroke-width="2.5" stroke-linecap="round" stroke-linejoin="round"/>
<path d="M5.9 52L0.625 39.35H4.65L8 47.9L10.975 39.35H14.9L9.625 52H5.9ZM17.1773 37.625V34.75H21.0273V37.625H17.1773ZM17.2523 52V39.525H20.9773L21.0023 52H17.2523ZM30.2557 52.325C29.0557 52.325 27.9473 52.0917 26.9307 51.625C25.9307 51.1417 25.1307 50.425 24.5307 49.475C23.9307 48.5083 23.6307 47.3 23.6307 45.85C23.6307 44.3 23.914 43.025 24.4807 42.025C25.0473 41.0083 25.8223 40.25 26.8057 39.75C27.8057 39.25 28.9473 39 30.2307 39C30.914 39 31.614 39.075 32.3307 39.225C33.064 39.3583 33.7057 39.55 34.2557 39.8V43C33.6723 42.75 33.0973 42.5333 32.5307 42.35C31.9807 42.1667 31.414 42.075 30.8307 42.075C29.7807 42.075 28.9307 42.3417 28.2807 42.875C27.6473 43.3917 27.3307 44.2417 27.3307 45.425C27.3307 46.675 27.6057 47.6167 28.1557 48.25C28.7223 48.8833 29.6723 49.2 31.0057 49.2C31.6057 49.2 32.1973 49.0917 32.7807 48.875C33.364 48.6583 33.864 48.4333 34.2807 48.2V51.375C33.6973 51.675 33.089 51.9083 32.4557 52.075C31.8223 52.2417 31.089 52.325 30.2557 52.325ZM36.8795 52V34.35H40.6295V39.925C41.1628 39.6417 41.7378 39.4167 42.3545 39.25C42.9712 39.0833 43.5878 39 44.2045 39C45.1212 39 45.9295 39.15 46.6295 39.45C47.3295 39.7333 47.8712 40.225 48.2545 40.925C48.6545 41.6083 48.8545 42.5333 48.8545 43.7V52H45.1295V44.475C45.1295 42.875 44.3295 42.075 42.7295 42.075C42.3295 42.075 41.9295 42.1333 41.5295 42.25C41.1462 42.3667 40.8462 42.5083 40.6295 42.675L40.5795 52H36.8795ZM57.0377 52.375C56.0044 52.375 55.071 52.25 54.2377 52C53.4044 51.7333 52.7377 51.2917 52.2377 50.675C51.7377 50.0417 51.4877 49.1667 51.4877 48.05C51.4877 46.8833 51.8544 45.95 52.5877 45.25C53.321 44.5333 54.4627 44.175 56.0127 44.175C56.6627 44.175 57.2877 44.2583 57.8877 44.425C58.5044 44.5917 59.0294 44.7917 59.4627 45.025V44.225C59.4627 43.4583 59.2127 42.9083 58.7127 42.575C58.2294 42.225 57.546 42.05 56.6627 42.05C55.9127 42.05 55.1627 42.1833 54.4127 42.45C53.6627 42.7 53.071 43.0083 52.6377 43.375V40.075C53.0377 39.8083 53.696 39.5583 54.6127 39.325C55.546 39.0917 56.571 38.975 57.6877 38.975C58.171 38.975 58.721 39.0333 59.3377 39.15C59.971 39.25 60.5794 39.4583 61.1627 39.775C61.746 40.075 62.221 40.5167 62.5877 41.1C62.971 41.6833 63.1627 42.45 63.1627 43.4L63.1377 49.375C63.121 50.4583 62.5794 51.2333 61.5127 51.7C60.446 52.15 58.9544 52.375 57.0377 52.375ZM55.1877 48.125C55.1877 48.625 55.3877 49.025 55.7877 49.325C56.2044 49.6083 56.6627 49.75 57.1627 49.75C58.0127 49.75 58.6044 49.6917 58.9377 49.575C59.2877 49.4583 59.4627 49.225 59.4627 48.875V46.925C58.8627 46.725 58.221 46.625 57.5377 46.625C55.971 46.625 55.1877 47.125 55.1877 48.125ZM71.3443 52.375C70.311 52.375 69.3777 52.25 68.5443 52C67.711 51.7333 67.0443 51.2917 66.5443 50.675C66.0443 50.0417 65.7943 49.1667 65.7943 48.05C65.7943 46.8833 66.161 45.95 66.8943 45.25C67.6277 44.5333 68.7693 44.175 70.3193 44.175C70.9693 44.175 71.5943 44.2583 72.1943 44.425C72.811 44.5917 73.336 44.7917 73.7693 45.025V44.225C73.7693 43.4583 73.5193 42.9083 73.0193 42.575C72.536 42.225 71.8527 42.05 70.9693 42.05C70.2193 42.05 69.4693 42.1833 68.7193 42.45C67.9693 42.7 67.3777 43.0083 66.9443 43.375V40.075C67.3443 39.8083 68.0027 39.5583 68.9193 39.325C69.8527 39.0917 70.8777 38.975 71.9943 38.975C72.4777 38.975 73.0277 39.0333 73.6443 39.15C74.2777 39.25 74.886 39.4583 75.4693 39.775C76.0527 40.075 76.5277 40.5167 76.8943 41.1C77.2777 41.6833 77.4693 42.45 77.4693 43.4L77.4443 49.375C77.4277 50.4583 76.886 51.2333 75.8193 51.7C74.7527 52.15 73.261 52.375 71.3443 52.375ZM69.4943 48.125C69.4943 48.625 69.6943 49.025 70.0943 49.325C70.511 49.6083 70.9693 49.75 71.4693 49.75C72.3193 49.75 72.911 49.6917 73.2443 49.575C73.5943 49.4583 73.7693 49.225 73.7693 48.875V46.925C73.1693 46.725 72.5277 46.625 71.8443 46.625C70.2777 46.625 69.4943 47.125 69.4943 48.125ZM80.776 52V40.675C81.0093 40.4917 81.426 40.2667 82.026 40C82.626 39.7333 83.3093 39.5 84.076 39.3C84.8593 39.0833 85.6426 38.975 86.426 38.975C87.2093 38.975 87.826 39.0333 88.276 39.15C88.726 39.2667 89.0676 39.4167 89.301 39.6V42.325C88.9176 42.2417 88.4176 42.1833 87.801 42.15C87.1843 42.1167 86.5676 42.1083 85.951 42.125C85.351 42.125 84.8676 42.1583 84.501 42.225V52H80.776Z" fill="white"/>
</svg>
